<svg xmlns="http://www.w3.org/2000/svg" xmlns:xlink="http://www.w3.org/1999/xlink" width="22" height="22" viewBox="0 0 22 22"><defs><path id="bp9ga" d="M242.433 3288c.135 0 .254.05.356.152a.517.517 0 0 1 .152.381v8.358h3.017c.288 0 .533.102.737.305.203.203.304.457.304.762v8.358c0 .305-.106.563-.317.775-.212.211-.453.3-.724.266-.339-.017-.614.072-.826.267a1.58 1.58 0 0 0-.444.686 2.18 2.18 0 0 1-.432.75 1.137 1.137 0 0 1-.762.406v-2.109h-1.22v2.109a.53.53 0 0 1-.152.368.47.47 0 0 1-.356.165h-11.533a.47.47 0 0 1-.356-.165.53.53 0 0 1-.152-.368v-2.109h-1.168v2.109c-.17.17-.348.152-.534-.051-.186-.203-.351-.478-.495-.826a2.836 2.836 0 0 0-.623-.927c-.27-.27-.559-.372-.863-.305-.271.051-.513-.034-.724-.254a1.097 1.097 0 0 1-.318-.787v-8.358c0-.305.102-.56.305-.762.203-.203.449-.305.737-.305h3.016v-8.358c0-.152.718-.28.82-.38a.487.487 0 0 1 .355-.153zm-11.514 11.084h10.161v-9.162H230.92zm12.841.436a.882.882 0 0 0-.266.648c0 .254.089.47.266.648a.883.883 0 0 0 .648.267c.254 0 .47-.09.648-.267a.882.882 0 0 0 .267-.648.882.882 0 0 0-.267-.648.882.882 0 0 0-.648-.266.882.882 0 0 0-.648.266zm-12.841 8.376h10.161v-2.89H230.92z"/></defs><g><g transform="translate(-225 -3288)"><use fill="#fff" xlink:href="#bp9ga"/></g></g></svg>