<svg xmlns="http://www.w3.org/2000/svg" xmlns:xlink="http://www.w3.org/1999/xlink" width="18" height="19" viewBox="0 0 18 19"><defs><path id="a1poa" d="M239.19 3159.115v-1.288a1.232 1.232 0 1 1 2.464 0v1.288a1.23 1.23 0 0 1-1.233 1.23c-.68 0-1.23-.548-1.23-1.23zm5.77 15.813l-1.392.004h-16.604v-16.237l2.846.032v.626c0 1.034.84 1.878 1.875 1.878a1.879 1.879 0 0 0 1.877-1.877v-.627h5.005v.627a1.877 1.877 0 0 0 3.752 0v-.627h2.623zm-1.963-11.822h-14.01v9.864h14.01zm-12.563-3.991v-1.288a1.23 1.23 0 1 1 2.463 0v1.288c0 .682-.55 1.23-1.232 1.23-.68 0-1.23-.548-1.23-1.23zm3.132 5.334h1.97v1.74h-1.97zm3.187 0h1.973v1.74h-1.973zm2.956 0h1.97v1.74h-1.97zm-6.143 2.888h1.97v1.74h-1.97zm3.187 0h1.973v1.74h-1.973zm2.956 0h1.97v1.74h-1.97zm-6.143 2.947h1.97v1.739h-1.97zm-3.132-2.947h1.97v1.74h-1.97zm0 2.947h1.97v1.739h-1.97zm6.319 0h1.973v1.739h-1.973zm2.956 0h1.97v1.739h-1.97z"/></defs><g><g transform="translate(-227 -3156)"><use fill="#fff" xlink:href="#a1poa"/></g></g></svg>