<svg xmlns="http://www.w3.org/2000/svg" xmlns:xlink="http://www.w3.org/1999/xlink" width="13" height="21" viewBox="0 0 13 21"><defs><path id="qqi7a" d="M236.336 3199c1.755 0 3.25.61 4.485 1.833 1.234 1.221 1.851 2.698 1.851 4.427 0 .66-.233 1.634-.7 2.925a50.935 50.935 0 0 1-1.522 3.748 108.876 108.876 0 0 1-1.913 3.974 106.178 106.178 0 0 1-1.522 2.945c-.288.522-.514.934-.679 1.236 0 .055-.528-.92-1.584-2.925a96.337 96.337 0 0 1-3.168-6.672c-1.056-2.444-1.584-4.187-1.584-5.23 0-1.73.617-3.207 1.851-4.428 1.235-1.222 2.73-1.833 4.485-1.833zm1.358 7.578c.384-.384.576-.844.576-1.38 0-.535-.192-.988-.576-1.358a1.914 1.914 0 0 0-1.379-.556c-.534 0-.994.185-1.378.556-.384.37-.576.823-.576 1.358 0 .536.192.996.576 1.38a1.88 1.88 0 0 0 1.378.577 1.88 1.88 0 0 0 1.379-.577z"/></defs><g><g transform="translate(-230 -3199)"><use fill="#fff" xlink:href="#qqi7a"/></g></g></svg>