<svg xmlns="http://www.w3.org/2000/svg" xmlns:xlink="http://www.w3.org/1999/xlink" width="53" height="60" viewBox="0 0 53 60"><defs><path id="8ei8a" d="M198.61 51.047a2.317 2.317 0 0 1 .418-2.864c-2.451-6.239-.937-10.119.144-11.824-.275-.59-.205-1.317.242-1.816l2.18-2.435c.568-.635 1.496-.64 2.072-.007l1.908 2.095c.576.63.45 1.505-.278 1.95l-2.748 1.68c-.697.426-1.7.306-2.306-.242-.856 1.573-1.82 4.821.196 9.984a2.32 2.32 0 0 1 2.17 1.127c1.386 2.35 4.807 7.01 8.671 9.407a3.83 3.83 0 0 1 3.128-.57c.79.2 1.513.213 2.205.044l.134-.036c.65-.188 1.239-.534 1.795-1.056a3.85 3.85 0 0 1 3.057-1.003c2.221-4.011 2.867-9.884 2.894-12.65a2.313 2.313 0 0 1 1.315-2.062c-.835-5.48-3.296-7.81-4.821-8.744-.25.778-1.06 1.382-1.877 1.362l-3.22-.08c-.854-.022-1.398-.715-1.216-1.55l.606-2.769c.182-.835.988-1.295 1.798-1.03l3.101 1.019c.64.208 1.063.803 1.12 1.45 1.79.938 5.04 3.541 6.036 10.17a2.314 2.314 0 0 1 1.793 2.27c-.004.538-.138 9.76-4.124 15.925a3.85 3.85 0 0 1-1.18 3.335 12.348 12.348 0 0 1-3.51 2.32c.018 2.323-.22 6.196-1.579 10.64-.608 1.99.355 3.54 1.272 4.49 2.484 2.573 7.014 3.62 11.015 2.549 3.092-.829 4.553-3.084 5.233-4.83 1.603-4.115.653-9.731-2.478-14.66-4.964-7.817-2.6-14.301.066-17.614a8.274 8.274 0 0 1-.693-1.741 8.244 8.244 0 1 1 10.096 5.83 8.2 8.2 0 0 1-6.114-.752c-1.368 1.92-3.117 6.002.56 11.79 3.967 6.244 5.045 13.284 2.884 18.831-1.51 3.877-4.479 6.586-8.353 7.624-5.643 1.512-11.892-.018-15.551-3.807-2.484-2.57-3.347-5.874-2.372-9.065a31.514 31.514 0 0 0 1.371-8.317 12.61 12.61 0 0 1-3.168-.394 3.857 3.857 0 0 1-2.675-2.42c-6.369-3.434-10.948-11.1-11.216-11.554zM238 41.98a3.22 3.22 0 1 0 6.221-1.666 3.22 3.22 0 0 0-6.22 1.666z"/></defs><g><g transform="translate(-197 -28)"><use fill="#42b3e5" xlink:href="#8ei8a"/></g></g></svg>