<svg xmlns="http://www.w3.org/2000/svg" width="67" height="74" viewBox="0 0 67 74"><defs><mask id="xlphb" width="2" height="2" x="-1" y="-1"><path fill="#fff" d="M0 0h67v74H0z"/><path d="M33.6.8l33.2 17V58l-33 16L.4 57.8 0 17.6z"/></mask><filter id="xlpha" width="87" height="94" x="-10" y="-10" filterUnits="userSpaceOnUse"><feOffset in="SourceGraphic" result="FeOffset1023Out"/><feGaussianBlur in="FeOffset1023Out" result="FeGaussianBlur1024Out" stdDeviation="0 0"/></filter></defs><g><g><g filter="url(#xlpha)"><path fill="none" d="M33.6.8l33.2 17V58l-33 16L.4 57.8 0 17.6z" mask="url(&quot;#xlphb&quot;)"/><path fill-opacity=".2" d="M33.6.8l33.2 17V58l-33 16L.4 57.8 0 17.6z"/></g><path fill="#fff" d="M33.6.8l33.2 17V58l-33 16L.4 57.8 0 17.6z"/></g><g><g><text fill="#42b3e5" style="text-transform:uppercase;line-height:47.194px" dominant-baseline="text-before-edge" font-family="'ChaletComprime-CologneEighty','ChaletComprime-CologneEighty'" font-size="35.79" font-style="none" font-weight="400" transform="translate(24 17)"><tspan letter-spacing="2.83" style="font-kerning:normal">C</tspan></text></g></g></g></svg>