<svg xmlns="http://www.w3.org/2000/svg" xmlns:xlink="http://www.w3.org/1999/xlink" width="13" height="21" viewBox="0 0 13 21"><defs><path id="lbr6a" d="M241.972 3244.457v18.054a1.51 1.51 0 0 1-1.508 1.51h-9.894c-.835 0-1.51-.677-1.51-1.51v-18.054c0-.834.675-1.51 1.51-1.51h9.894a1.51 1.51 0 0 1 1.508 1.51zm-8.722.103c0 .202.087.365.197.365h4.308c.109 0 .197-.163.197-.365 0-.2-.088-.363-.197-.363h-4.308c-.11 0-.197.162-.197.363zm3.313 17.005a.963.963 0 1 0-1.926 0 .963.963 0 0 0 1.926 0zm3.445-15.57h-8.982v12.899h8.982z"/></defs><g><g transform="translate(-229 -3243)"><use fill="#fff" xlink:href="#lbr6a"/></g></g></svg>